<?xml version="1.0" encoding="iso-8859-1"?>
<!-- Generator: Adobe Illustrator 19.0.0, SVG Export Plug-In . SVG Version: 6.00 Build 0)  -->
<svg version="1.1" id="Capa_1" xmlns="http://www.w3.org/2000/svg" xmlns:xlink="http://www.w3.org/1999/xlink" x="0px" y="0px"
	 viewBox="0 0 480 480" style="enable-background:new 0 0 480 480;" xml:space="preserve">
<g>
	<g>
		<rect x="280" y="264" width="16" height="16"/>
	</g>
</g>
<g>
	<g>
		<path d="M480,272V48c0-22.056-17.944-40-40-40H128C83.888,8,48,43.888,48,88c0,26.408,12.912,49.792,32.696,64.368
			C35.584,156.104,0,193.944,0,240v7.68V464v0.768h0.152C0.56,468.808,3.856,472,8,472h184c4.416,0,8-3.584,8-8V351.16
			c8.4,8.576,19.56,14.408,32,16.2V368h8h100h124v32h-32v16h16v56h16v-56h8c4.416,0,8-3.584,8-8v-48c0-4.416-3.584-8-8-8H369.904
			c3.84-5.728,6.096-12.6,6.096-20c0-7.4-2.256-14.272-6.096-20H440C462.056,312,480,294.056,480,272z M440,24
			c13.232,0,24,10.768,24,24v184h-36.896l10.016-30.032c7.432-22.304,5.736-46.16-4.776-67.184l-7.696-15.392l0.384-1.16
			c9.768-29.288,0.144-61.928-23.968-81.224L397,33.76c-2.92-2.336-7.072-2.336-10,0l-4.04,3.232
			c-24.112,19.288-33.752,51.92-23.992,81.216l0.392,1.176l-7.696,15.392c-10.512,21.024-12.208,44.888-4.776,67.184L356.904,232
			H320v-72h-0.064c0-1-0.12-2.008-0.504-2.976l-32-80C286.208,73.992,283.272,72,280,72c-3.272,0-6.208,1.992-7.432,5.024l-32,80
			c-0.384,0.968-0.504,1.976-0.504,2.976H240v29.56c-14.616-20.8-37.968-34.976-64.696-37.192C195.088,137.792,208,114.408,208,88
			c0-26.184-12.704-49.4-32.2-64H440z M390.056,103.76c0.648,0.16,1.296,0.24,1.944,0.24c2.096,0,4.136-0.824,5.656-2.344l3.92-3.92
			l10.616,5.312c-0.424,3.008-1.056,6-1.976,8.96h-36.44c-1.312-4.24-1.96-8.56-2.272-12.872L390.056,103.76z M372.608,82.904
			c2.64-12.512,9.224-24.144,19.392-32.64c10.736,8.968,17.544,21.408,19.848,34.72l-8.272-4.136c-3.08-1.528-6.8-0.928-9.232,1.504
			l-4.8,4.8L372.608,82.904z M372.944,128h38.112l6.968,13.936c0.336,0.68,0.592,1.376,0.912,2.064h-53.864
			c0.312-0.68,0.568-1.384,0.904-2.064L372.944,128z M424.184,160c2.456,12.168,1.784,24.808-2.248,36.904L410.232,232H373.76
			l-11.688-35.096c-4.032-12.096-4.712-24.736-2.248-36.904H424.184z M267.576,144.848C266.456,144.28,265.224,144,264,144
			c-0.336,0-0.672,0.016-1.008,0.064L280,101.536l17.008,42.52c-1.552-0.208-3.16,0.072-4.584,0.784L280,151.056L267.576,144.848z
			 M272,164.944V232h-16v-67.056l8-4L272,164.944z M288,164.944l8-4l8,4V232h-16V164.944z M64,88c0-35.288,28.712-64,64-64
			s64,28.712,64,64c0,14.872-5.144,28.544-13.688,39.424C163.384,124.728,152,111.696,152,96h-16
			c0,19.744,11.984,36.72,29.048,44.088C154.584,147.56,141.816,152,128,152C92.712,152,64,123.288,64,88z M152,456H16V256
			l112.344-0.008c7.296-0.304,14.024,2.032,18.608,6.416c2.304,2.208,5.048,5.912,5.048,11.024V456z M340,352H240
			c-22.056,0-40-17.944-40-40v-72h-16v216h-16V273.432c0-8.392-3.544-16.416-9.984-22.576c-7.72-7.4-18.832-11.328-30.016-10.856H16
			c0-39.696,32.304-72,72-72h80c39.696,0,72,32.304,72,72v64c0,4.416,3.584,8,8,8h92c11.024,0,20,8.976,20,20S351.024,352,340,352z
			 M340,296h-84v-48h112h48h48v24c0,13.232-10.768,24-24,24H340z"/>
	</g>
</g>
<g>
</g>
<g>
</g>
<g>
</g>
<g>
</g>
<g>
</g>
<g>
</g>
<g>
</g>
<g>
</g>
<g>
</g>
<g>
</g>
<g>
</g>
<g>
</g>
<g>
</g>
<g>
</g>
<g>
</g>
</svg>
