<svg id="Capa_1" enable-background="new 0 0 512 512" height="512" viewBox="0 0 512 512" width="512" xmlns="http://www.w3.org/2000/svg"><g><circle cx="256" cy="166" r="15"/><path d="m346 91h-180c-8.284 0-15 6.716-15 15v180c0 8.284 6.716 15 15 15h180c8.284 0 15-6.716 15-15v-180c0-8.284-6.716-15-15-15zm-15 148.937c-15.226-2.15-29.112-7.386-42.727-13.937 13.615-6.55 27.501-11.786 42.727-13.937zm0-118.937v60.819c-28.733 3.13-52.383 14.845-75 27.098-22.616-12.252-46.267-23.968-75-27.098v-60.819zm-150 150v-58.937c52.015 7.347 89.819 51.561 150 58.117v.82z"/><path d="m451 196c0-108.075-87.477-196-195-196s-195 87.925-195 196c0 42.537 13.456 82.961 38.891 116.873l144.087 193.098c2.832 3.794 7.288 6.029 12.022 6.029s9.19-2.235 12.022-6.029l144.065-193.069c25.457-33.941 38.913-74.365 38.913-116.902zm-195 275.918-132.088-177.016c-21.531-28.708-32.912-62.907-32.912-98.902 0-91.533 74.019-166 165-166s165 74.467 165 166c0 35.995-11.381 70.194-32.935 98.931z"/></g></svg>