<?xml version="1.0" encoding="iso-8859-1"?>
<!-- Generator: Adobe Illustrator 19.0.0, SVG Export Plug-In . SVG Version: 6.00 Build 0)  -->
<svg version="1.1" id="Capa_1" xmlns="http://www.w3.org/2000/svg" xmlns:xlink="http://www.w3.org/1999/xlink" x="0px" y="0px"
	 viewBox="0 0 512 512" style="enable-background:new 0 0 512 512;" xml:space="preserve">
<g>
	<g>
		<path d="M367.393,397.782L286.918,86.916l33.224-33.224c1.875-1.875,2.929-4.419,2.929-7.071V10c0-5.523-4.478-10-10-10H198.93
			c-5.522,0-10,4.477-10,10v36.621c0,2.652,1.054,5.196,2.929,7.071l33.224,33.224l-80.475,310.867
			c-0.888,3.43,0.104,7.073,2.609,9.578l101.712,101.711C250.882,511.024,253.44,512,256,512s5.118-0.976,7.071-2.929
			L364.783,407.36C367.288,404.855,368.28,401.212,367.393,397.782z M208.93,42.479V20h94.141v22.479L256,89.549L208.93,42.479z
			 M241.492,103.327l7.437,7.435c1.953,1.953,4.512,2.929,7.071,2.929s5.118-0.976,7.071-2.929l7.436-7.436l12.41,47.94
			l-72.639,72.64L241.492,103.327z M165.402,397.26l35.047-135.387c0.358-0.272,0.708-0.562,1.035-0.889l87.25-87.25l10.979,42.41
			l-73.451,73.451c-3.905,3.905-3.905,10.237,0,14.143c1.953,1.953,4.512,2.929,7.071,2.929c2.559,0,5.119-0.977,7.071-2.929
			l65.125-65.125l11.162,43.118c-0.233,0.194-0.461,0.396-0.68,0.614L183.25,415.108L165.402,397.26z M256,487.858L235.142,467
			l63.429-63.429c3.905-3.905,3.905-10.237,0-14.143c-3.906-3.905-10.236-3.905-14.143,0L221,452.858l-23.607-23.607
			l125.102-125.103l24.104,93.113L256,487.858z"/>
	</g>
</g>
<g>
	<g>
		<path d="M322.74,365.26c-1.86-1.86-4.44-2.93-7.07-2.93c-2.641,0-5.22,1.07-7.07,2.93c-1.87,1.86-2.93,4.44-2.93,7.07
			c0,2.64,1.06,5.21,2.93,7.07c1.86,1.87,4.43,2.93,7.07,2.93c2.63,0,5.21-1.06,7.07-2.93c1.859-1.86,2.93-4.43,2.93-7.07
			C325.67,369.7,324.6,367.12,322.74,365.26z"/>
	</g>
</g>
<g>
	<g>
		<path d="M211.95,318.05c-1.87-1.86-4.44-2.93-7.08-2.93c-2.63,0-5.2,1.07-7.07,2.93c-1.86,1.87-2.92,4.44-2.92,7.08
			c0,2.63,1.059,5.2,2.92,7.06c1.86,1.87,4.44,2.93,7.07,2.93c2.64,0,5.21-1.06,7.08-2.93c1.859-1.86,2.93-4.43,2.93-7.06
			C214.88,322.49,213.81,319.92,211.95,318.05z"/>
	</g>
</g>
<g>
</g>
<g>
</g>
<g>
</g>
<g>
</g>
<g>
</g>
<g>
</g>
<g>
</g>
<g>
</g>
<g>
</g>
<g>
</g>
<g>
</g>
<g>
</g>
<g>
</g>
<g>
</g>
<g>
</g>
</svg>
